Model Marker Locations from IK
version=1
nRows=4
nColumns=118
inDegrees=no
endheader
time	R.Heel_tx	R.Heel_ty	R.Heel_tz	R.Midfoot.Superior_tx	R.Midfoot.Superior_ty	R.Midfoot.Superior_tz	R.Midfoot.Lateral_tx	R.Midfoot.Lateral_ty	R.Midfoot.Lateral_tz	R.Toe_tx	R.Toe_ty	R.Toe_tz	L.Heel_tx	L.Heel_ty	L.Heel_tz	L.Midfoot.Superior_tx	L.Midfoot.Superior_ty	L.Midfoot.Superior_tz	L.Midfoot.Lateral_tx	L.Midfoot.Lateral_ty	L.Midfoot.Lateral_tz	L.Toe_tx	L.Toe_ty	L.Toe_tz	R.Shank.Superior_tx	R.Shank.Superior_ty	R.Shank.Superior_tz	R.Shank.Inferior_tx	R.Shank.Inferior_ty	R.Shank.Inferior_tz	R.Shank.Lateral_tx	R.Shank.Lateral_ty	R.Shank.Lateral_tz	R.Shank.Posterior_tx	R.Shank.Posterior_ty	R.Shank.Posterior_tz	L.Shank.Superior_tx	L.Shank.Superior_ty	L.Shank.Superior_tz	L.Shank.Inferior_tx	L.Shank.Inferior_ty	L.Shank.Inferior_tz	L.Shank.Posterior_tx	L.Shank.Posterior_ty	L.Shank.Posterior_tz	L.Shank.Lateral_tx	L.Shank.Lateral_ty	L.Shank.Lateral_tz	R.Patella_tx	R.Patella_ty	R.Patella_tz	L.Patella_tx	L.Patella_ty	L.Patella_tz	R.Thigh.Superior_tx	R.Thigh.Superior_ty	R.Thigh.Superior_tz	R.Thigh.Lateral_tx	R.Thigh.Lateral_ty	R.Thigh.Lateral_tz	R.Thigh.Inferior_tx	R.Thigh.Inferior_ty	R.Thigh.Inferior_tz	L.Thigh.Superior_tx	L.Thigh.Superior_ty	L.Thigh.Superior_tz	L.Thigh.Inferior_tx	L.Thigh.Inferior_ty	L.Thigh.Inferior_tz	L.Thigh.Lateral_tx	L.Thigh.Lateral_ty	L.Thigh.Lateral_tz	L.ASIS_tx	L.ASIS_ty	L.ASIS_tz	R.ASIS_tx	R.ASIS_ty	R.ASIS_tz	Sacral_tx	Sacral_ty	Sacral_tz	R.Shoulder_tx	R.Shoulder_ty	R.Shoulder_tz	L.Shoulder_tx	L.Shoulder_ty	L.Shoulder_tz	C7_tx	C7_ty	C7_tz	J.Notch_tx	J.Notch_ty	J.Notch_tz	Sternum_tx	Sternum_ty	Sternum_tz	Thoracic_tx	Thoracic_ty	Thoracic_tz	L.Elbow_tx	L.Elbow_ty	L.Elbow_tz	L.Wrist_tx	L.Wrist_ty	L.Wrist_tz	R.Elbow_tx	R.Elbow_ty	R.Elbow_tz	R.Wrist_tx	R.Wrist_ty	R.Wrist_tz	R.PSIS_tx	R.PSIS_ty	R.PSIS_tz	L.PSIS_tx	L.PSIS_ty	L.PSIS_tz
      0.00000000	      0.89180367	      0.08146012	      0.07517817	      1.04816248	      0.15840204	      0.09153835	      0.97113008	      0.07809512	      0.12860885	      1.17250381	      0.13834949	      0.09585679	      0.65323418	      0.04366231	     -0.09512016	      0.81668470	      0.09564970	     -0.14149711	      0.72212421	      0.02890743	     -0.16310423	      0.93230925	      0.05686219	     -0.16415213	      0.93112716	      0.41086954	      0.09903651	      0.95491049	      0.29239209	      0.10165684	      0.87170919	      0.32984614	      0.14936514	      0.79939997	      0.37125089	      0.08554935	      0.77457412	      0.35424036	     -0.14869907	      0.75902698	      0.23955816	     -0.14457608	      0.62478658	      0.34060555	     -0.14450656	      0.69457774	      0.27902410	     -0.19767397	      0.93127383	      0.52021937	      0.07428287	      0.78988417	      0.46764008	     -0.15134250	      0.85146934	      0.83592528	      0.06756755	      0.80406483	      0.74375454	      0.13027755	      0.90600581	      0.68366674	      0.05245941	      0.84254942	      0.77221294	     -0.18585189	      0.82147521	      0.60832142	     -0.17149218	      0.74214821	      0.70235127	     -0.24014621	      0.82731282	      0.95304072	     -0.17244122	      0.80849677	      0.95069805	      0.07044319	      0.62826819	      0.98666143	     -0.06074878	      0.73682160	      1.43294398	      0.08279627	      0.74945107	      1.43005777	     -0.23903799	      0.71310077	      1.47640822	     -0.07559067	      0.84044524	      1.38097146	     -0.07287329	      0.89275204	      1.19476837	     -0.07406073	      0.62884133	      1.33050008	     -0.07846737	      0.74711814	      1.18902180	     -0.41119603	      0.90788820	      0.98167410	     -0.45276718	      0.66863914	      1.18919840	      0.25167349	      0.73930634	      0.97267510	      0.38971313	      0.62648349	      0.98998182	     -0.02420366	      0.62833920	      0.98909747	     -0.09843275
      0.00665801	      0.89193034	      0.08139825	      0.07493793	      1.04819327	      0.15848379	      0.09153636	      0.97116896	      0.07812181	      0.12850422	      1.17254474	      0.13854245	      0.09607261	      0.65320563	      0.04360169	     -0.09514627	      0.81663683	      0.09569116	     -0.14147679	      0.72213416	      0.02887112	     -0.16309658	      0.93229903	      0.05697981	     -0.16406974	      0.93106413	      0.41084536	      0.09899842	      0.95490092	      0.29237800	      0.10158920	      0.87164441	      0.32977359	      0.14924702	      0.79936622	      0.37117052	      0.08539101	      0.77458364	      0.35421939	     -0.14870482	      0.75901660	      0.23953993	     -0.14458077	      0.62479312	      0.34060980	     -0.14453741	      0.69458303	      0.27901495	     -0.19769093	      0.93118284	      0.52020343	      0.07428494	      0.78991678	      0.46762522	     -0.15135897	      0.85136571	      0.83588696	      0.06765349	      0.80391821	      0.74368663	      0.13028744	      0.90591788	      0.68363687	      0.05251684	      0.84247634	      0.77224215	     -0.18585695	      0.82146354	      0.60834218	     -0.17150357	      0.74210297	      0.70234452	     -0.24015648	      0.82730960	      0.95291996	     -0.17245554	      0.80853968	      0.95057108	      0.07043238	      0.62832433	      0.98674642	     -0.06071947	      0.73693955	      1.43293533	      0.08280706	      0.74962822	      1.43004184	     -0.23902480	      0.71325692	      1.47640203	     -0.07558493	      0.84058161	      1.38093960	     -0.07284248	      0.89285105	      1.19472594	     -0.07401747	      0.62896856	      1.33051085	     -0.07847513	      0.74710744	      1.18896975	     -0.41131337	      0.90798631	      0.98165512	     -0.45277630	      0.66864087	      1.18916691	      0.25178919	      0.73932204	      0.97258895	      0.38974999	      0.62655060	      0.99006473	     -0.02417362	      0.62839045	      0.98918654	     -0.09840319
      0.01331602	      0.89202930	      0.08132620	      0.07467111	      1.04821034	      0.15851241	      0.09156975	      0.97117561	      0.07808624	      0.12837592	      1.17256714	      0.13865402	      0.09631877	      0.65323178	      0.04366671	     -0.09511011	      0.81668434	      0.09565362	     -0.14148042	      0.72212278	      0.02891491	     -0.16309386	      0.93230846	      0.05686508	     -0.16413586	      0.93101731	      0.41079684	      0.09899459	      0.95488508	      0.29233495	      0.10154998	      0.87154933	      0.32967819	      0.14911026	      0.79935069	      0.37109152	      0.08517495	      0.77453907	      0.35424820	     -0.14869651	      0.75900699	      0.23956413	     -0.14456895	      0.62475292	      0.34059335	     -0.14452002	      0.69455836	      0.27901843	     -0.19767622	      0.93114186	      0.52016821	      0.07434256	      0.78983299	      0.46764726	     -0.15134161	      0.85132660	      0.83584026	      0.06779399	      0.80379240	      0.74360114	      0.13030498	      0.90590097	      0.68359986	      0.05263993	      0.84250887	      0.77220941	     -0.18586547	      0.82142829	      0.60831950	     -0.17149674	      0.74211427	      0.70234622	     -0.24017005	      0.82731332	      0.95300779	     -0.17244581	      0.80848996	      0.95059940	      0.07043739	      0.62828117	      0.98668506	     -0.06074818	      0.73705277	      1.43290834	      0.08282555	      0.74978894	      1.43002776	     -0.23900455	      0.71341122	      1.47639319	     -0.07556759	      0.84069784	      1.38088041	     -0.07281123	      0.89289402	      1.19464622	     -0.07398870	      0.62906577	      1.33053543	     -0.07847867	      0.74734008	      1.18916903	     -0.41121963	      0.90790646	      0.98166501	     -0.45279759	      0.66877892	      1.18924868	      0.25166916	      0.73931425	      0.97267566	      0.38972197	      0.62649705	      0.98999509	     -0.02420209	      0.62835426	      0.98913260	     -0.09843140
      0.01997403	      0.89208452	      0.08128497	      0.07441165	      1.04820048	      0.15854301	      0.09158118	      0.97113678	      0.07808514	      0.12825720	      1.17255759	      0.13874111	      0.09655269	      0.65323683	      0.04367537	     -0.09511788	      0.81669813	      0.09563979	     -0.14148259	      0.72214013	      0.02889156	     -0.16308221	      0.93232615	      0.05684007	     -0.16409891	      0.93094727	      0.41076692	      0.09897192	      0.95484519	      0.29231038	      0.10149308	      0.87144796	      0.32960643	      0.14898256	      0.79930663	      0.37103209	      0.08499057	      0.77451364	      0.35425472	     -0.14871356	      0.75899224	      0.23956934	     -0.14458233	      0.62472956	      0.34058710	     -0.14450451	      0.69452872	      0.27901800	     -0.19767571	      0.93107036	      0.52014955	      0.07437240	      0.78979657	      0.46765332	     -0.15136033	      0.85125839	      0.83581066	      0.06790952	      0.80365895	      0.74353850	      0.13032201	      0.90584771	      0.68357806	      0.05273095	      0.84247166	      0.77220901	     -0.18589888	      0.82138982	      0.60831984	     -0.17152353	      0.74206514	      0.70234737	     -0.24018342	      0.82732826	      0.95297045	     -0.17245417	      0.80851074	      0.95055141	      0.07042938	      0.62831383	      0.98672500	     -0.06074829	      0.73718446	      1.43290095	      0.08284115	      0.74996616	      1.43002730	     -0.23898721	      0.71357739	      1.47639724	     -0.07555399	      0.84083794	      1.38085017	     -0.07278239	      0.89298423	      1.19460200	     -0.07395834	      0.62919317	      1.33056225	     -0.07848189	      0.74735024	      1.18914846	     -0.41131741	      0.90799308	      0.98165614	     -0.45278590	      0.66879445	      1.18924028	      0.25176561	      0.73932811	      0.97261849	      0.38975617	      0.62653217	      0.99003298	     -0.02420189	      0.62838691	      0.98917542	     -0.09843133
